<svg xmlns="http://www.w3.org/2000/svg" width="300" height="300" class="bubble"><defs><pattern id="hash-warning" patternUnits="userSpaceOnUse" width="4" height="4"><path d="M-1,1 l2,-2 M0,4 l4,-4 M3,5 l2,-2" stroke="#000000" stroke-width="1"/></pattern><pattern id="hash-critical" patternUnits="userSpaceOnUse" width="4" height="4"><path d="M-1,1 l2,-2 M0,4 l4,-4 M3,5 l2,-2" stroke="#000000" stroke-width="3"/></pattern><pattern id="hash-good" patternUnits="userSpaceOnUse" width="5" height="5"><circle cx="2" cy="2" r="2" style="stroke:none;fill:#eee"/></pattern></defs><g class="node"><circle r="11.074540339114767" x="43651.44110209265" y="43145.25887885255" transform="translate(145.98809733141354,144.29518019683127)" style="fill: rgb(255, 46, 18); stroke-width: 0; stroke: rgb(0, 0, 0);"/></g><g class="node"><circle r="5.537270169557384" x="49016.53830964975" y="43145.25887885255" transform="translate(163.9315662530092,144.29518019683127)" style="fill: rgb(244, 179, 0); stroke-width: 0; stroke: rgb(0, 0, 0);"/></g><g class="node"><circle r="5.537270169557384" x="47734.1715422166" y="39664.514676843115" transform="translate(159.6427141880154,132.65389524027796)" style="fill: rgb(120, 186, 0); stroke-width: 0; stroke: rgb(0, 0, 0);"/></g><g class="node"><circle r="4.5211621611166946" x="44665.88537083785" y="38186.683750224816" transform="translate(149.3808875278858,127.71131689038398)" style="fill: rgb(120, 186, 0); stroke-width: 0; stroke: rgb(0, 0, 0);"/></g><g class="node"><circle r="4.5211621611166946" x="41582.68838359748" y="38526.07857598989" transform="translate(139.06919191838622,128.84641664210665)" style="fill: rgb(120, 186, 0); stroke-width: 0; stroke: rgb(0, 0, 0);"/></g><g class="node"><circle r="5.537270169557384" x="38909.33164958737" y="40635.94303842969" transform="translate(130.12819949694773,135.9028195265207)" style="fill: rgb(244, 179, 0); stroke-width: 0; stroke: rgb(0, 0, 0);"/></g><g class="node"><circle r="8.458319898472558" x="37714.11732250224" y="45060.188968415765" transform="translate(126.13082716555934,150.6996286569089)" style="fill: rgb(244, 179, 0); stroke-width: 0; stroke: rgb(0, 0, 0);"/></g><g class="node"><circle r="4.5211621611166946" x="41183.921556682995" y="47564.29856793171" transform="translate(137.73552360094646,159.07457715027329)" style="fill: rgb(120, 186, 0); stroke-width: 0; stroke: rgb(0, 0, 0);"/></g><g class="node"><circle r="4.5211621611166946" x="44225.248427484585" y="48173.907766373144" transform="translate(147.90718537620262,161.1134039009135)" style="fill: rgb(120, 186, 0); stroke-width: 0; stroke: rgb(0, 0, 0);"/></g><g class="node"><circle r="4.5211621611166946" x="47051.05974286954" y="46894.81319609051" transform="translate(157.3580593407008,156.8354956390987)" style="fill: rgb(244, 179, 0); stroke-width: 0; stroke: rgb(0, 0, 0);"/></g><g class="node"><circle r="4.5211621611166946" x="50108.35550055122" y="46371.13852614189" transform="translate(167.58312876438535,155.08407533826718)" style="fill: rgb(120, 186, 0); stroke-width: 0; stroke: rgb(0, 0, 0);"/></g><g class="node"><circle r="4.5211621611166946" x="52271.26216323822" y="44147.824045824644" transform="translate(174.81693031183352,147.64824095593525)" style="fill: rgb(244, 179, 0); stroke-width: 0; stroke: rgb(0, 0, 0);"/></g><g class="node"><circle r="4.5211621611166946" x="51734.249295377056" y="41092.84291828298" transform="translate(173.02090065343498,137.4309127701772)" style="fill: rgb(244, 179, 0); stroke-width: 0; stroke: rgb(0, 0, 0);"/></g><g class="node"><circle r="5.537270169557384" x="50931.18039206785" y="37783.244058348246" transform="translate(170.3350514784878,126.36202026203426)" style="fill: rgb(244, 179, 0); stroke-width: 0; stroke: rgb(0, 0, 0);"/></g><g class="node"><circle r="4.5211621611166946" x="47884.0955864868" y="36262.179146932336" transform="translate(160.14413239627694,121.27484664525865)" style="fill: rgb(120, 186, 0); stroke-width: 0; stroke: rgb(0, 0, 0);"/></g><g class="node"><circle r="4.5211621611166946" x="45006.75289803957" y="35103.649232289026" transform="translate(150.52091270247348,117.40016465648503)" style="fill: rgb(120, 186, 0); stroke-width: 0; stroke: rgb(0, 0, 0);"/></g><g class="node"><circle r="6.393888845939281" x="41352.34902614144" y="34871.564261762185" transform="translate(138.2988261743861,116.62396074167954)" style="fill: rgb(244, 179, 0); stroke-width: 0; stroke: rgb(0, 0, 0);"/></g><g class="node"><circle r="4.5211621611166946" x="38566.16893667364" y="37247.639092558056" transform="translate(128.98049811596536,124.57069930621422)" style="fill: rgb(120, 186, 0); stroke-width: 0; stroke: rgb(0, 0, 0);"/></g><g class="node"><circle r="4.5211621611166946" x="35961.03884151416" y="38931.263069929046" transform="translate(120.26768843315773,130.20154872885968)" style="fill: rgb(120, 186, 0); stroke-width: 0; stroke: rgb(0, 0, 0);"/></g><g class="node"><circle r="4.5211621611166946" x="34892.53507385474" y="41843.237006691146" transform="translate(116.69409723697237,139.94059199562258)" style="fill: rgb(120, 186, 0); stroke-width: 0; stroke: rgb(0, 0, 0);"/></g><g class="node"><circle r="6.393888845939281" x="32877.76388576776" y="44900.88776375008" transform="translate(109.95573205942395,150.16684870819424)" style="fill: rgb(120, 186, 0); stroke-width: 0; stroke: rgb(0, 0, 0);"/></g><g class="node"><circle r="5.537270169557384" x="34635.96553633602" y="48455.40190989522" transform="translate(115.83600513824756,162.0548558859372)" style="fill: rgb(244, 179, 0); stroke-width: 0; stroke: rgb(0, 0, 0);"/></g><g class="node"><circle r="10.109625929556785" x="38626.18495408348" y="51593.85577767704" transform="translate(129.181220582219,172.5513571159767)" style="fill: rgb(244, 179, 0); stroke-width: 0; stroke: rgb(0, 0, 0);"/></g><g class="node"><circle r="8.458319898472558" x="44515.248145819154" y="52443.100485528885" transform="translate(148.87708409972961,175.39164041982906)" style="fill: rgb(244, 179, 0); stroke-width: 0; stroke: rgb(0, 0, 0);"/></g><g class="node"><circle r="8.458319898472558" x="49660.25012773546" y="50626.64177308934" transform="translate(166.08444858774402,169.3165276691951)" style="fill: rgb(244, 179, 0); stroke-width: 0; stroke: rgb(0, 0, 0);"/></g><g class="node"><circle r="16.611810508672153" x="57292.3093495986" y="48609.45631368308" transform="translate(191.60973026621608,162.57008800562903)" style="fill: rgb(255, 46, 18); stroke-width: 0; stroke: rgb(0, 0, 0);"/></g><g class="node"><circle r="4.5211621611166946" x="54811.3070877529" y="42367.5251126869" transform="translate(183.31206383863847,141.69406392202976)" style="fill: rgb(120, 186, 0); stroke-width: 0; stroke: rgb(0, 0, 0);"/></g><g class="node"><circle r="13.18133953513313" x="56883.25521404208" y="37066.86984129555" transform="translate(190.24165623425446,123.96611987055367)" style="fill: rgb(255, 46, 18); stroke-width: 0; stroke: rgb(0, 0, 0);"/></g><g class="node"><circle r="4.5211621611166946" x="51807.66279462317" y="34492.325816405064" transform="translate(173.26643075124804,115.35560473714067)" style="fill: rgb(244, 179, 0); stroke-width: 0; stroke: rgb(0, 0, 0);"/></g><g class="node"><circle r="4.5211621611166946" x="48927.397497954415" y="33341.0811288213" transform="translate(163.63343644800807,111.50528805625852)" style="fill: rgb(244, 179, 0); stroke-width: 0; stroke: rgb(0, 0, 0);"/></g><g class="node"><circle r="4.5211621611166946" x="46050.05480950718" y="32182.551214177987" transform="translate(154.0102167542046,107.6306060674849)" style="fill: rgb(255, 46, 18); stroke-width: 0; stroke: rgb(0, 0, 0);"/></g><g class="node"><circle r="4.5211621611166946" x="43002.879595441904" y="31602.882580672212" transform="translate(143.81899530248128,105.6919149855258)" style="fill: rgb(244, 179, 0); stroke-width: 0; stroke: rgb(0, 0, 0);"/></g><g class="node"><circle r="4.5211621611166946" x="39902.47790000032" y="31509.06447587807" transform="translate(133.44975886287733,105.37814205979286)" style="fill: rgb(244, 179, 0); stroke-width: 0; stroke: rgb(0, 0, 0);"/></g><g class="node"><circle r="4.5211621611166946" x="37842.43134189766" y="33828.00834935443" transform="translate(126.55997104313599,113.13380718847634)" style="fill: rgb(255, 46, 18); stroke-width: 0; stroke: rgb(0, 0, 0);"/></g><g class="node"><circle r="4.5211621611166946" x="35501.98998559725" y="35863.59837870779" transform="translate(118.73240797858611,119.94180059768493)" style="fill: rgb(120, 186, 0); stroke-width: 0; stroke: rgb(0, 0, 0);"/></g><g class="node"><circle r="4.5211621611166946" x="33074.83886066556" y="37794.978695120655" transform="translate(110.61484568784468,126.40126653886506)" style="fill: rgb(120, 186, 0); stroke-width: 0; stroke: rgb(0, 0, 0);"/></g><g class="node"><circle r="4.5211621611166946" x="32006.33509300613" y="40706.95263188276" transform="translate(107.0412544916593,136.14030980562796)" style="fill: rgb(255, 46, 18); stroke-width: 0; stroke: rgb(0, 0, 0);"/></g><g class="node"><circle r="4.5211621611166946" x="29811.695668404005" y="42898.94950821864" transform="translate(99.70132330569902,143.47140303752053)" style="fill: rgb(120, 186, 0); stroke-width: 0; stroke: rgb(0, 0, 0);"/></g><g class="node"><circle r="4.5211621611166946" x="29375.53118608412" y="45969.95147081111" transform="translate(98.24257921767264,153.74231261140838)" style="fill: rgb(120, 186, 0); stroke-width: 0; stroke: rgb(0, 0, 0);"/></g><g class="node"><circle r="4.5211621611166946" x="31230.328479094947" y="48456.11709516599" transform="translate(104.4459146458025,162.0572478099197)" style="fill: rgb(120, 186, 0); stroke-width: 0; stroke: rgb(0, 0, 0);"/></g><g class="node"><circle r="5.537270169557384" x="32616.432351453208" y="51566.91768861086" transform="translate(109.08171355001073,172.46126317261158)" style="fill: rgb(120, 186, 0); stroke-width: 0; stroke: rgb(0, 0, 0);"/></g><g class="node"><circle r="5.537270169557384" x="34607.99085626884" y="54696.412767363305" transform="translate(115.7424443353473,182.92780189753614)" style="fill: rgb(244, 179, 0); stroke-width: 0; stroke: rgb(0, 0, 0);"/></g><g class="node"><circle r="4.5211621611166946" x="37632.42883019385" y="56262.024219488" transform="translate(125.85762150566505,188.1639606002943)" style="fill: rgb(120, 186, 0); stroke-width: 0; stroke: rgb(0, 0, 0);"/></g><g class="node"><circle r="4.5211621611166946" x="40711.49168452642" y="55886.971624571604" transform="translate(136.1554905837004,186.9096040955572)" style="fill: rgb(120, 186, 0); stroke-width: 0; stroke: rgb(0, 0, 0);"/></g><g class="node"><circle r="5.537270169557384" x="43933.92184128799" y="56988.92814001911" transform="translate(146.93284896751837,190.59507739136825)" style="fill: rgb(120, 186, 0); stroke-width: 0; stroke: rgb(0, 0, 0);"/></g><g class="node"><circle r="6.393888845939281" x="47778.37519913772" y="56016.29139460749" transform="translate(159.7905525054773,187.34211168765046)" style="fill: rgb(120, 186, 0); stroke-width: 0; stroke: rgb(0, 0, 0);"/></g><g class="node"><circle r="4.5211621611166946" x="51168.07719757795" y="54631.20964458019" transform="translate(171.12734848688277,182.70973125277655)" style="fill: rgb(244, 179, 0); stroke-width: 0; stroke: rgb(0, 0, 0);"/></g><g class="node"><circle r="4.5211621611166946" x="54269.81060799971" y="54607.92100877684" transform="translate(181.5010388227415,182.6318428387185)" style="fill: rgb(120, 186, 0); stroke-width: 0; stroke: rgb(0, 0, 0);"/></g><g class="node"><circle r="10.603065126609549" x="58539.439086923594" y="57053.26790052389" transform="translate(195.78073273218592,190.8102605368692)" style="fill: rgb(255, 46, 18); stroke-width: 0; stroke: rgb(0, 0, 0);"/></g><g class="node"><circle r="5.537270169557384" x="62349.6240340207" y="53479.19677975404" transform="translate(208.52382620073814,178.8568454172376)" style="fill: rgb(120, 186, 0); stroke-width: 0; stroke: rgb(0, 0, 0);"/></g><g class="node"><circle r="6.393888845939281" x="64416.02546024424" y="50094.55071186034" transform="translate(215.43486776001416,167.53695890254295)" style="fill: rgb(120, 186, 0); stroke-width: 0; stroke: rgb(0, 0, 0);"/></g><g class="node"><circle r="7.148585050048957" x="64187.77934584103" y="45653.04599625134" transform="translate(214.67150282889975,152.68242808110816)" style="fill: rgb(255, 46, 18); stroke-width: 0; stroke: rgb(0, 0, 0);"/></g><g class="node"><circle r="7.83088257231202" x="62093.510614741994" y="41248.56784739486" transform="translate(207.6672595810769,137.95173193108647)" style="fill: rgb(255, 46, 18); stroke-width: 0; stroke: rgb(0, 0, 0);"/></g><g class="node"><circle r="4.5211621611166946" x="62573.23543626316" y="37185.362097984194" transform="translate(209.27169042228482,124.3624150434254)" style="fill: rgb(120, 186, 0); stroke-width: 0; stroke: rgb(0, 0, 0);"/></g><g class="node"><circle r="11.961870715310111" x="62850.99804715447" y="31866.016491999148" transform="translate(210.2006623650651,106.57196151170282)" style="fill: rgb(255, 46, 18); stroke-width: 0; stroke: rgb(0, 0, 0);"/></g><g class="node"><circle r="4.5211621611166946" x="57543.610919234095" y="31414.096567336783" transform="translate(192.45020374325784,105.06052363657787)" style="fill: rgb(255, 46, 18); stroke-width: 0; stroke: rgb(0, 0, 0);"/></g><g class="node"><circle r="13.935157667840615" x="52375.73273691434" y="28533.253692734103" transform="translate(175.16633022379378,95.42559763456222)" style="fill: rgb(255, 46, 18); stroke-width: 0; stroke: rgb(0, 0, 0);"/></g><g class="node"><circle r="6.393888845939281" x="45899.188726576256" y="28523.894286081348" transform="translate(153.50564791497075,95.39429527117508)" style="fill: rgb(120, 186, 0); stroke-width: 0; stroke: rgb(0, 0, 0);"/></g><g class="node"><circle r="4.5211621611166946" x="42238.14863476539" y="28596.808884358874" transform="translate(141.26136667145616,95.63815680387583)" style="fill: rgb(120, 186, 0); stroke-width: 0; stroke: rgb(0, 0, 0);"/></g><g class="node"><circle r="4.5211621611166946" x="39137.74693932381" y="28502.990779564727" transform="translate(130.8921302318522,95.3243838781429)" style="fill: rgb(244, 179, 0); stroke-width: 0; stroke: rgb(0, 0, 0);"/></g><g class="node"><circle r="9.590833268908922" x="34878.64077043998" y="30287.011307496665" transform="translate(116.64762799478255,101.29100771738015)" style="fill: rgb(255, 46, 18); stroke-width: 0; stroke: rgb(0, 0, 0);"/></g><g class="node"><circle r="4.5211621611166946" x="32769.85369411682" y="34395.01954369085" transform="translate(109.59482840841744,115.0301656979627)" style="fill: rgb(244, 179, 0); stroke-width: 0; stroke: rgb(0, 0, 0);"/></g><g class="node"><circle r="10.603065126609549" x="28326.013988993214" y="36507.30206366345" transform="translate(94.73248825750238,122.09465573131587)" style="fill: rgb(255, 46, 18); stroke-width: 0; stroke: rgb(0, 0, 0);"/></g><g class="node"><circle r="4.5211621611166946" x="27161.16831717106" y="41287.739630440374" transform="translate(90.83668333502027,138.08274123893102)" style="fill: rgb(120, 186, 0); stroke-width: 0; stroke: rgb(0, 0, 0);"/></g><g class="node"><circle r="4.5211621611166946" x="26725.003834851173" y="44358.74159303284" transform="translate(89.37793924699389,148.35365081281887)" style="fill: rgb(255, 46, 18); stroke-width: 0; stroke: rgb(0, 0, 0);"/></g><g class="node"><circle r="15.332006841956593" x="24860.145767928738" y="50412.26925693765" transform="translate(83.14095574558107,168.59956273223295)" style="fill: rgb(255, 46, 18); stroke-width: 0; stroke: rgb(0, 0, 0);"/></g><g class="node"><circle r="5.537270169557384" x="30188.381832880666" y="54371.30985186101" transform="translate(100.9611432537815,181.84050117679269)" style="fill: rgb(255, 46, 18); stroke-width: 0; stroke: rgb(0, 0, 0);"/></g><g class="node"><circle r="4.5211621611166946" x="32208.45624381139" y="57113.145669601836" transform="translate(107.7172449625799,191.01052063411984)" style="fill: rgb(120, 186, 0); stroke-width: 0; stroke: rgb(0, 0, 0);"/></g><g class="node"><circle r="4.5211621611166946" x="35144.30349840793" y="58114.19182616115" transform="translate(117.53613210169874,194.35850109083998)" style="fill: rgb(120, 186, 0); stroke-width: 0; stroke: rgb(0, 0, 0);"/></g><g class="node"><circle r="9.042324322233389" x="38881.28440986732" y="60536.991252677835" transform="translate(130.03439601962316,202.4615092062804)" style="fill: rgb(244, 179, 0); stroke-width: 0; stroke: rgb(0, 0, 0);"/></g><g class="node"><circle r="4.5211621611166946" x="43330.60492457826" y="60340.69975741124" transform="translate(144.91506663738548,201.80501591107438)" style="fill: rgb(120, 186, 0); stroke-width: 0; stroke: rgb(0, 0, 0);"/></g><g class="node"><circle r="4.5211621611166946" x="46298.682924784014" y="59439.69726319784" transform="translate(154.84174891232112,198.79162964280215)" style="fill: rgb(120, 186, 0); stroke-width: 0; stroke: rgb(0, 0, 0);"/></g><g class="node"><circle r="7.148585050048957" x="50172.532778150795" y="59764.23348519152" transform="translate(167.79776848879862,199.8770350675302)" style="fill: rgb(244, 179, 0); stroke-width: 0; stroke: rgb(0, 0, 0);"/></g><g class="node"><circle r="4.5211621611166946" x="53389.86860170848" y="57582.310790807496" transform="translate(178.55808896892466,192.57963475186452)" style="fill: rgb(120, 186, 0); stroke-width: 0; stroke: rgb(0, 0, 0);"/></g><g class="node"><circle r="5.537270169557384" x="54787.17168415475" y="60688.09706370679" transform="translate(183.23134342526672,202.96687981172838)" style="fill: rgb(244, 179, 0); stroke-width: 0; stroke: rgb(0, 0, 0);"/></g><g class="node"><circle r="4.5211621611166946" x="57954.86578457085" y="61938.72824968152" transform="translate(193.8256380754878,207.1495928082994)" style="fill: rgb(244, 179, 0); stroke-width: 0; stroke: rgb(0, 0, 0);"/></g><g class="node"><circle r="7.148585050048957" x="61835.5991229222" y="61710.81334796577" transform="translate(206.80467934087693,206.38733561192566)" style="fill: rgb(120, 186, 0); stroke-width: 0; stroke: rgb(0, 0, 0);"/></g><g class="node"><circle r="4.5211621611166946" x="63341.20808532344" y="58126.79631422377" transform="translate(211.84016082047972,194.40065656931029)" style="fill: rgb(120, 186, 0); stroke-width: 0; stroke: rgb(0, 0, 0);"/></g><g class="node"><circle r="4.5211621611166946" x="65058.259062678626" y="55543.57575626753" transform="translate(217.5828062296944,185.76112293066063)" style="fill: rgb(120, 186, 0); stroke-width: 0; stroke: rgb(0, 0, 0);"/></g><g class="node"><circle r="4.5211621611166946" x="66731.17645882079" y="52931.557399599806" transform="translate(223.1778476883638,177.02527558394584)" style="fill: rgb(120, 186, 0); stroke-width: 0; stroke: rgb(0, 0, 0);"/></g><g class="node"><circle r="5.537270169557384" x="68379.01321098385" y="49951.12147253071" transform="translate(228.6890073945948,167.05726244993548)" style="fill: rgb(120, 186, 0); stroke-width: 0; stroke: rgb(0, 0, 0);"/></g><g class="node"><circle r="5.537270169557384" x="68337.4436516398" y="46241.900975205805" transform="translate(228.5499787680261,154.6518427264408)" style="fill: rgb(244, 179, 0); stroke-width: 0; stroke: rgb(0, 0, 0);"/></g><g class="node"><circle r="5.537270169557384" x="67179.55891891854" y="42717.791488857474" transform="translate(224.6774545783229,142.86552337410527)" style="fill: rgb(244, 179, 0); stroke-width: 0; stroke: rgb(0, 0, 0);"/></g><g class="node"><circle r="4.5211621611166946" x="65833.45515928208" y="39589.47421827315" transform="translate(220.17543531532468,132.40292380693361)" style="fill: rgb(120, 186, 0); stroke-width: 0; stroke: rgb(0, 0, 0);"/></g><g class="node"><circle r="6.393888845939281" x="66941.29470303182" y="36099.31338561905" transform="translate(223.8805842910763,120.73014510240483)" style="fill: rgb(244, 179, 0); stroke-width: 0; stroke: rgb(0, 0, 0);"/></g><g class="node"><circle r="4.5211621611166946" x="68122.06087983311" y="32633.145136931384" transform="translate(227.82963504960904,109.13760915361667)" style="fill: rgb(120, 186, 0); stroke-width: 0; stroke: rgb(0, 0, 0);"/></g><g class="node"><circle r="5.537270169557384" x="67831.47622206951" y="29239.927661758888" transform="translate(226.85778000692144,97.78905572494611)" style="fill: rgb(120, 186, 0); stroke-width: 0; stroke: rgb(0, 0, 0);"/></g><g class="node"><circle r="4.5211621611166946" x="65195.73504989658" y="27083.25597824837" transform="translate(218.04259214012237,90.57610695066344)" style="fill: rgb(120, 186, 0); stroke-width: 0; stroke: rgb(0, 0, 0);"/></g><g class="node"><circle r="11.526747041825674" x="60517.426266135975" y="24821.18995420066" transform="translate(202.3960744686822,83.01066874314603)" style="fill: rgb(244, 179, 0); stroke-width: 0; stroke: rgb(0, 0, 0);"/></g><g class="node"><circle r="4.5211621611166946" x="55490.872835047434" y="23503.132149028734" transform="translate(185.58485898009175,78.60244865895898)" style="fill: rgb(120, 186, 0); stroke-width: 0; stroke: rgb(0, 0, 0);"/></g><g class="node"><circle r="5.537270169557384" x="52299.846136167565" y="22313.294813852448" transform="translate(174.91252888350357,74.62305957810183)" style="fill: rgb(120, 186, 0); stroke-width: 0; stroke: rgb(0, 0, 0);"/></g><g class="node"><circle r="7.148585050048957" x="48220.36366185781" y="23274.693159419727" transform="translate(161.2687747888221,77.83843866026665)" style="fill: rgb(120, 186, 0); stroke-width: 0; stroke: rgb(0, 0, 0);"/></g><g class="node"><circle r="5.537270169557384" x="44346.61929850285" y="24874.87085093891" transform="translate(148.31310802174866,83.19020351484585)" style="fill: rgb(120, 186, 0); stroke-width: 0; stroke: rgb(0, 0, 0);"/></g><g class="node"><circle r="6.393888845939281" x="40385.3756885907" y="25060.324139227443" transform="translate(135.0648016340826,83.81044862617874)" style="fill: rgb(244, 179, 0); stroke-width: 0; stroke: rgb(0, 0, 0);"/></g><g class="node"><circle r="4.5211621611166946" x="36882.33310469181" y="26126.731072756782" transform="translate(123.34894014947095,87.37702699918657)" style="fill: rgb(120, 186, 0); stroke-width: 0; stroke: rgb(0, 0, 0);"/></g><g class="node"><circle r="4.5211621611166946" x="33798.02561914872" y="25797.580887420347" transform="translate(113.03353049882514,86.27619025893092)" style="fill: rgb(120, 186, 0); stroke-width: 0; stroke: rgb(0, 0, 0);"/></g><g class="node"><circle r="4.5211621611166946" x="31201.316202392616" y="27494.163545239986" transform="translate(104.34888362004219,91.95037974996652)" style="fill: rgb(120, 186, 0); stroke-width: 0; stroke: rgb(0, 0, 0);"/></g><g class="node"><circle r="4.5211621611166946" x="30263.8990466605" y="30450.94246596154" transform="translate(101.21370918615551,101.83927246140983)" style="fill: rgb(120, 186, 0); stroke-width: 0; stroke: rgb(0, 0, 0);"/></g><g class="node"><circle r="4.5211621611166946" x="27412.740150525085" y="31672.49289835148" transform="translate(91.67806070409728,105.92472541254676)" style="fill: rgb(120, 186, 0); stroke-width: 0; stroke: rgb(0, 0, 0);"/></g><g class="node"><circle r="4.5211621611166946" x="24701.66890320835" y="33179.60444095762" transform="translate(82.61093278665,110.96523224400542)" style="fill: rgb(120, 186, 0); stroke-width: 0; stroke: rgb(0, 0, 0);"/></g><g class="node"><circle r="4.5211621611166946" x="23430.980894675962" y="36009.20591375484" transform="translate(78.36114011597311,120.42878232025029)" style="fill: rgb(120, 186, 0); stroke-width: 0; stroke: rgb(0, 0, 0);"/></g><g class="node"><circle r="6.393888845939281" x="23835.39864118988" y="39648.570882920896" transform="translate(79.71370783006648,132.6005715147856)" style="fill: rgb(120, 186, 0); stroke-width: 0; stroke: rgb(0, 0, 0);"/></g><g class="node"><circle r="7.83088257231202" x="21724.731418779877" y="43793.4894818323" transform="translate(72.65462012969859,146.46317552452274)" style="fill: rgb(244, 179, 0); stroke-width: 0; stroke: rgb(0, 0, 0);"/></g><g class="node"><circle r="7.148585050048957" x="18418.742585885786" y="47378.99183416633" transform="translate(61.59780129058791,158.45482218784727)" style="fill: rgb(244, 179, 0); stroke-width: 0; stroke: rgb(0, 0, 0);"/></g><g class="node"><circle r="10.109625929556785" x="17221.477073866074" y="52806.88672015759" transform="translate(57.59356880891663,176.60831678982473)" style="fill: rgb(255, 46, 18); stroke-width: 0; stroke: rgb(0, 0, 0);"/></g><g class="node"><circle r="4.5211621611166946" x="21136.615293289735" y="55536.54614171479" transform="translate(70.68767656618641,185.73761251409627)" style="fill: rgb(120, 186, 0); stroke-width: 0; stroke: rgb(0, 0, 0);"/></g><g class="node"><circle r="7.148585050048957" x="24478.823137088602" y="57521.91340614347" transform="translate(81.86562922103212,192.37763680984438)" style="fill: rgb(244, 179, 0); stroke-width: 0; stroke: rgb(0, 0, 0);"/></g><g class="node"><circle r="7.83088257231202" x="28917.111726513456" y="59543.54237279252" transform="translate(96.70940376760353,199.13893770164722)" style="fill: rgb(244, 179, 0); stroke-width: 0; stroke: rgb(0, 0, 0);"/></g><g class="node"><circle r="4.5211621611166946" x="32938.875795274216" y="60295.3339939564" transform="translate(110.16011971663619,201.65329094968698)" style="fill: rgb(244, 179, 0); stroke-width: 0; stroke: rgb(0, 0, 0);"/></g><g class="node"><circle r="4.5211621611166946" x="34959.9148463412" y="62648.35198452649" transform="translate(116.91944764662608,209.522916336209)" style="fill: rgb(244, 179, 0); stroke-width: 0; stroke: rgb(0, 0, 0);"/></g><g class="node"><circle r="4.5211621611166946" x="37289.43038210769" y="64696.4364257805" transform="translate(124.71046950537689,216.37269707618896)" style="fill: rgb(255, 46, 18); stroke-width: 0; stroke: rgb(0, 0, 0);"/></g><g class="node"><circle r="6.393888845939281" x="40927.298749085734" y="65114.102365293074" transform="translate(136.87725334142385,217.76957312807048)" style="fill: rgb(244, 179, 0); stroke-width: 0; stroke: rgb(0, 0, 0);"/></g><g class="node"><circle r="6.393888845939281" x="44888.64959236125" y="63654.463162617074" transform="translate(150.12591836910119,212.88783666427116)" style="fill: rgb(244, 179, 0); stroke-width: 0; stroke: rgb(0, 0, 0);"/></g><g class="node"><circle r="5.537270169557384" x="48853.256422999584" y="63742.42075275434" transform="translate(163.3854729866207,213.18200920653626)" style="fill: rgb(244, 179, 0); stroke-width: 0; stroke: rgb(0, 0, 0);"/></g><g class="node"><circle r="4.5211621611166946" x="52194.70040274424" y="63084.30495187139" transform="translate(174.56087091218808,210.98095301629226)" style="fill: rgb(120, 186, 0); stroke-width: 0; stroke: rgb(0, 0, 0);"/></g><g class="node"><circle r="4.5211621611166946" x="55133.69979947256" y="64076.05847766029" transform="translate(184.39030033268415,214.29785444033544)" style="fill: rgb(120, 186, 0); stroke-width: 0; stroke: rgb(0, 0, 0);"/></g><g class="node"><circle r="4.5211621611166946" x="58082.61831589607" y="65037.91714367043" transform="translate(194.25290406654204,217.51477305575392)" style="fill: rgb(120, 186, 0); stroke-width: 0; stroke: rgb(0, 0, 0);"/></g><g class="node"><circle r="4.5211621611166946" x="61144.147566738306" y="65536.2455054176" transform="translate(204.49213233022843,219.18142309504213)" style="fill: rgb(120, 186, 0); stroke-width: 0; stroke: rgb(0, 0, 0);"/></g><g class="node"><circle r="6.393888845939281" x="64773.44482472499" y="65049.69385794455" transform="translate(216.63025024991634,217.5541600600152)" style="fill: rgb(120, 186, 0); stroke-width: 0; stroke: rgb(0, 0, 0);"/></g><g class="node"><circle r="4.5211621611166946" x="65717.92335853558" y="61511.82848576609" transform="translate(219.78904133289495,205.72183440055548)" style="fill: rgb(120, 186, 0); stroke-width: 0; stroke: rgb(0, 0, 0);"/></g><g class="node"><circle r="4.5211621611166946" x="66421.58759403577" y="58490.876789104565" transform="translate(222.14243342486878,195.6183170204166)" style="fill: rgb(120, 186, 0); stroke-width: 0; stroke: rgb(0, 0, 0);"/></g><g class="node"><circle r="4.5211621611166946" x="68138.63857139095" y="55907.656231148314" transform="translate(227.88507883408346,186.97878338176693)" style="fill: rgb(120, 186, 0); stroke-width: 0; stroke: rgb(0, 0, 0);"/></g><g class="node"><circle r="4.5211621611166946" x="69811.5559675331" y="53295.63787448059" transform="translate(233.48012029275284,178.24293603505214)" style="fill: rgb(120, 186, 0); stroke-width: 0; stroke: rgb(0, 0, 0);"/></g><g class="node"><circle r="4.5211621611166946" x="71673.34093946675" y="50814.70070716535" transform="translate(239.7068258845042,169.9454873149343)" style="fill: rgb(120, 186, 0); stroke-width: 0; stroke: rgb(0, 0, 0);"/></g><g class="node"><circle r="5.537270169557384" x="71856.84737018186" y="47414.01112018012" transform="translate(240.32055976649448,158.5719435457529)" style="fill: rgb(244, 179, 0); stroke-width: 0; stroke: rgb(0, 0, 0);"/></g><g class="node"><circle r="4.5211621611166946" x="70999.6715713749" y="44118.01143463959" transform="translate(237.45375107483244,147.54853322621938)" style="fill: rgb(255, 46, 18); stroke-width: 0; stroke: rgb(0, 0, 0);"/></g><g class="node"><circle r="7.148585050048957" x="70570.42614671846" y="40254.36227727202" transform="translate(236.01814764788782,134.62662968987297)" style="fill: rgb(244, 179, 0); stroke-width: 0; stroke: rgb(0, 0, 0);"/></g><g class="node"><circle r="6.393888845939281" x="71155.3774562221" y="35845.6331641344" transform="translate(237.97450654254882,119.88171626800802)" style="fill: rgb(255, 46, 18); stroke-width: 0; stroke: rgb(0, 0, 0);"/></g><g class="node"><circle r="7.148585050048957" x="71824.71645256472" y="31448.924652589394" transform="translate(240.21309850356096,105.17700552705483)" style="fill: rgb(255, 46, 18); stroke-width: 0; stroke: rgb(0, 0, 0);"/></g><g class="node"><circle r="17.79983322815855" x="72622.45433914017" y="23631.7807861588" transform="translate(242.88111819110424,79.03271165939398)" style="fill: rgb(255, 46, 18); stroke-width: 0; stroke: rgb(0, 0, 0);"/></g><g class="node"><circle r="4.5211621611166946" x="65551.03825564393" y="23530.35064877008" transform="translate(219.23089717606666,78.69348043066917)" style="fill: rgb(120, 186, 0); stroke-width: 0; stroke: rgb(0, 0, 0);"/></g><g class="node"><circle r="4.5211621611166946" x="63918.91172490564" y="20892.651746782893" transform="translate(213.77228001640682,69.87174497251804)" style="fill: rgb(120, 186, 0); stroke-width: 0; stroke: rgb(0, 0, 0);"/></g><g class="node"><circle r="7.83088257231202" x="60506.69152744078" y="18635.10214811619" transform="translate(202.36017233257786,62.32141186660934)" style="fill: rgb(255, 46, 18); stroke-width: 0; stroke: rgb(0, 0, 0);"/></g><g class="node"><circle r="4.5211621611166946" x="57047.68644199382" y="20820.293372077955" transform="translate(190.79159345148435,69.62974371932427)" style="fill: rgb(120, 186, 0); stroke-width: 0; stroke: rgb(0, 0, 0);"/></g><g class="node"><circle r="4.5211621611166946" x="54235.60308552579" y="19511.2938662875" transform="translate(181.38663239306285,65.2518189507943)" style="fill: rgb(120, 186, 0); stroke-width: 0; stroke: rgb(0, 0, 0);"/></g><g class="node"><circle r="7.148585050048957" x="50470.92483316982" y="18542.152957000468" transform="translate(168.7957352279927,62.010545006690535)" style="fill: rgb(244, 179, 0); stroke-width: 0; stroke: rgb(0, 0, 0);"/></g><g class="node"><circle r="6.393888845939281" x="46100.367888767876" y="19365.130735107" transform="translate(154.17848792230058,64.7629790471806)" style="fill: rgb(120, 186, 0); stroke-width: 0; stroke: rgb(0, 0, 0);"/></g><g class="node"><circle r="6.393888845939281" x="42364.41250630468" y="21331.21427497822" transform="translate(141.68365386723974,71.33850928086362)" style="fill: rgb(244, 179, 0); stroke-width: 0; stroke: rgb(0, 0, 0);"/></g><g class="node"><circle r="7.83088257231202" x="37713.70140451369" y="21252.775999655314" transform="translate(126.12943613549729,71.07617391189068)" style="fill: rgb(244, 179, 0); stroke-width: 0; stroke: rgb(0, 0, 0);"/></g><g class="node"><circle r="6.393888845939281" x="33158.172937657204" y="22192.15169820077" transform="translate(110.89355497544214,74.21789865618986)" style="fill: rgb(120, 186, 0); stroke-width: 0; stroke: rgb(0, 0, 0);"/></g><g class="node"><circle r="5.537270169557384" x="29844.463389197503" y="24370.493472958336" transform="translate(99.81091434514215,81.50332265203457)" style="fill: rgb(255, 46, 18); stroke-width: 0; stroke: rgb(0, 0, 0);"/></g><g class="node"><circle r="4.5211621611166946" x="28105.654582570114" y="27298.78789311806" transform="translate(93.99550027615422,91.29694947531124)" style="fill: rgb(120, 186, 0); stroke-width: 0; stroke: rgb(0, 0, 0);"/></g><g class="node"><circle r="4.5211621611166946" x="25613.645123841416" y="29145.726269862367" transform="translate(85.66102048107497,97.47400090254972)" style="fill: rgb(120, 186, 0); stroke-width: 0; stroke: rgb(0, 0, 0);"/></g><g class="node"><circle r="4.5211621611166946" x="22902.573876524675" y="30652.837812468504" transform="translate(76.59389256362768,102.51450773400838)" style="fill: rgb(255, 46, 18); stroke-width: 0; stroke: rgb(0, 0, 0);"/></g><g class="node"><circle r="4.5211621611166946" x="21613.87730016018" y="33474.28312364336" transform="translate(72.2838705690976,111.95077967773702)" style="fill: rgb(120, 186, 0); stroke-width: 0; stroke: rgb(0, 0, 0);"/></g><g class="node"><circle r="4.5211621611166946" x="20343.18929162779" y="36303.884596440585" transform="translate(68.0340778984207,121.41432975398189)" style="fill: rgb(120, 186, 0); stroke-width: 0; stroke: rgb(0, 0, 0);"/></g><g class="node"><circle r="4.5211621611166946" x="20181.976465840657" y="39401.51319501174" transform="translate(67.49490456802896,131.77429162211286)" style="fill: rgb(120, 186, 0); stroke-width: 0; stroke: rgb(0, 0, 0);"/></g><g class="node"><circle r="4.5211621611166946" x="18172.094710869504" y="41764.06855752037" transform="translate(60.772892009597,139.6758145736467)" style="fill: rgb(120, 186, 0); stroke-width: 0; stroke: rgb(0, 0, 0);"/></g><g class="node"><circle r="4.5211621611166946" x="16219.021693182625" y="44173.79847962111" transform="translate(54.240875228035534,147.73511197197695)" style="fill: rgb(120, 186, 0); stroke-width: 0; stroke: rgb(0, 0, 0);"/></g><g class="node"><circle r="4.5211621611166946" x="14574.146180347845" y="46803.565970704825" transform="translate(48.73961933226704,156.53032097225693)" style="fill: rgb(255, 46, 18); stroke-width: 0; stroke: rgb(0, 0, 0);"/></g><g class="node"><circle r="4.5211621611166946" x="13566.793631570737" y="49737.25534627893" transform="translate(45.37054726277839,166.3419911246787)" style="fill: rgb(120, 186, 0); stroke-width: 0; stroke: rgb(0, 0, 0);"/></g><g class="node"><circle r="5.537270169557384" x="12144.950819469319" y="52831.884127703146" transform="translate(40.61522013200441,176.6919201595423)" style="fill: rgb(120, 186, 0); stroke-width: 0; stroke: rgb(0, 0, 0);"/></g><g class="node"><circle r="4.5211621611166946" x="13597.200569992703" y="55912.36054203394" transform="translate(45.4722427090057,186.99451686298977)" style="fill: rgb(120, 186, 0); stroke-width: 0; stroke: rgb(0, 0, 0);"/></g><g class="node"><circle r="7.148585050048957" x="16637.78490706556" y="58334.525551888335" transform="translate(55.64142109386475,195.095403183573)" style="fill: rgb(244, 179, 0); stroke-width: 0; stroke: rgb(0, 0, 0);"/></g><g class="node"><circle r="4.5211621611166946" x="20517.698581762488" y="58575.992573892276" transform="translate(68.61772100923909,195.90298519696412)" style="fill: rgb(120, 186, 0); stroke-width: 0; stroke: rgb(0, 0, 0);"/></g><g class="node"><circle r="4.5211621611166946" x="22565.414665553773" y="60905.83191386117" transform="translate(75.46626978446078,203.69509001291362)" style="fill: rgb(120, 186, 0); stroke-width: 0; stroke: rgb(0, 0, 0);"/></g><g class="node"><circle r="5.537270169557384" x="25607.870633873616" y="62436.134484589755" transform="translate(85.64170780559738,208.813158811337)" style="fill: rgb(244, 179, 0); stroke-width: 0; stroke: rgb(0, 0, 0);"/></g><g class="node"><circle r="5.537270169557384" x="28999.686397291956" y="63938.010162888786" transform="translate(96.98557323509016,213.8361543909324)" style="fill: rgb(244, 179, 0); stroke-width: 0; stroke: rgb(0, 0, 0);"/></g><g class="node"><circle r="4.5211621611166946" x="32378.12617364126" y="64367.55521841201" transform="translate(108.28470292187711,215.27275992779937)" style="fill: rgb(120, 186, 0); stroke-width: 0; stroke: rgb(0, 0, 0);"/></g><g class="node"><circle r="6.393888845939281" x="34652.622724148365" y="67237.25843202483" transform="translate(115.89171479648282,224.87042953854456)" style="fill: rgb(244, 179, 0); stroke-width: 0; stroke: rgb(0, 0, 0);"/></g><g class="node"><circle r="5.537270169557384" x="38488.95405562577" y="68241.45252398693" transform="translate(128.72225436664138,228.22893820731417)" style="fill: rgb(120, 186, 0); stroke-width: 0; stroke: rgb(0, 0, 0);"/></g><g class="node"><circle r="8.458319898472558" x="42884.03822165974" y="69539.80706345044" transform="translate(143.42153251391218,232.57126108177403)" style="fill: rgb(244, 179, 0); stroke-width: 0; stroke: rgb(0, 0, 0);"/></g><g class="node"><circle r="7.148585050048957" x="47621.3102221179" y="67748.51268819379" transform="translate(159.26525157898962,226.5803099939592)" style="fill: rgb(244, 179, 0); stroke-width: 0; stroke: rgb(0, 0, 0);"/></g><g class="node"><circle r="5.537270169557384" x="51602.40690633642" y="66438.04207503065" transform="translate(172.579956208483,222.1974651338818)" style="fill: rgb(244, 179, 0); stroke-width: 0; stroke: rgb(0, 0, 0);"/></g><g class="node"><circle r="7.148585050048957" x="55510.3985469838" y="67952.6593117245" transform="translate(185.65016236449432,227.26307462115219)" style="fill: rgb(120, 186, 0); stroke-width: 0; stroke: rgb(0, 0, 0);"/></g><g class="node"><circle r="9.590833268908922" x="60466.91079921638" y="70103.96539203754" transform="translate(202.22712641878388,234.45807823423928)" style="fill: rgb(120, 186, 0); stroke-width: 0; stroke: rgb(0, 0, 0);"/></g><g class="node"><circle r="6.393888845939281" x="65564.39047305733" y="69196.65082503408" transform="translate(219.2755534215964,231.42358135462905)" style="fill: rgb(244, 179, 0); stroke-width: 0; stroke: rgb(0, 0, 0);"/></g><g class="node"><circle r="5.537270169557384" x="68466.57472208646" y="66494.2129545375" transform="translate(228.98185525781423,222.38532760714884)" style="fill: rgb(244, 179, 0); stroke-width: 0; stroke: rgb(0, 0, 0);"/></g><g class="node"><circle r="5.537270169557384" x="68867.8622302225" y="62806.52898463808" transform="translate(230.32395394723244,210.0519364034718)" style="fill: rgb(120, 186, 0); stroke-width: 0; stroke: rgb(0, 0, 0);"/></g><g class="node"><circle r="6.393888845939281" x="70060.50523607487" y="59024.53922793614" transform="translate(234.31272654205645,197.40314123055566)" style="fill: rgb(244, 179, 0); stroke-width: 0; stroke: rgb(0, 0, 0);"/></g><g class="node"><circle r="4.5211621611166946" x="71704.749739406" y="55752.69095734751" transform="translate(239.8118720381472,186.46050487407194)" style="fill: rgb(120, 186, 0); stroke-width: 0; stroke: rgb(0, 0, 0);"/></g><g class="node"><circle r="4.5211621611166946" x="73566.53471133967" y="53271.753790032264" transform="translate(246.03857762989855,178.16305615395407)" style="fill: rgb(120, 186, 0); stroke-width: 0; stroke: rgb(0, 0, 0);"/></g><g class="node"><circle r="4.5211621611166946" x="74747.80821361284" y="50403.6733478704" transform="translate(249.98932512913993,168.57081387247624)" style="fill: rgb(244, 179, 0); stroke-width: 0; stroke: rgb(0, 0, 0);"/></g><g class="node"><circle r="4.5211621611166946" x="75261.77976296442" y="47344.73141374655" transform="translate(251.70829352162013,158.3402388419617)" style="fill: rgb(120, 186, 0); stroke-width: 0; stroke: rgb(0, 0, 0);"/></g><g class="node"><circle r="5.537270169557384" x="74404.60396415748" y="44048.731728206025" transform="translate(248.84148482995812,147.31682852242818)" style="fill: rgb(244, 179, 0); stroke-width: 0; stroke: rgb(0, 0, 0);"/></g><g class="node"><circle r="5.537270169557384" x="74760.42087309429" y="40356.38301047175" transform="translate(250.03150793677023,134.96783615542392)" style="fill: rgb(120, 186, 0); stroke-width: 0; stroke: rgb(0, 0, 0);"/></g><g class="node"><circle r="4.5211621611166946" x="74645.79121349148" y="36952.67557323763" transform="translate(249.64813114880093,123.58419924159742)" style="fill: rgb(120, 186, 0); stroke-width: 0; stroke: rgb(0, 0, 0);"/></g><g class="node"><circle r="7.83088257231202" x="76361.58351471451" y="33238.401263834625" transform="translate(255.3865669388445,111.16187713657064)" style="fill: rgb(244, 179, 0); stroke-width: 0; stroke: rgb(0, 0, 0);"/></g><g class="node"><circle r="5.537270169557384" x="77644.03744402408" y="29034.417718000248" transform="translate(259.67571051513073,97.10173149832859)" style="fill: rgb(120, 186, 0); stroke-width: 0; stroke: rgb(0, 0, 0);"/></g><g class="node"><circle r="8.458319898472558" x="80641.43408880748" y="25567.70418923712" transform="translate(269.70044845755007,85.50737187035826)" style="fill: rgb(255, 46, 18); stroke-width: 0; stroke: rgb(0, 0, 0);"/></g><g class="node"><circle r="4.5211621611166946" x="79360.82680642509" y="21484.794528439343" transform="translate(265.41748095794344,71.85215561350951)" style="fill: rgb(120, 186, 0); stroke-width: 0; stroke: rgb(0, 0, 0);"/></g><g class="node"><circle r="7.148585050048957" x="77955.00776627983" y="17860.472623285124" transform="translate(260.7157450377252,59.73067766984991)" style="fill: rgb(244, 179, 0); stroke-width: 0; stroke: rgb(0, 0, 0);"/></g><g class="node"><circle r="5.537270169557384" x="74029.70248620043" y="16391.308747047788" transform="translate(247.5876337331118,54.817086110527725)" style="fill: rgb(120, 186, 0); stroke-width: 0; stroke: rgb(0, 0, 0);"/></g><g class="node"><circle r="5.537270169557384" x="70327.42667938375" y="16621.956912657708" transform="translate(235.20544039927677,55.588484657718084)" style="fill: rgb(120, 186, 0); stroke-width: 0; stroke: rgb(0, 0, 0);"/></g><g class="node"><circle r="4.5211621611166946" x="67596.32415557298" y="18656.519096907185" transform="translate(226.07131824606347,62.39304045788356)" style="fill: rgb(120, 186, 0); stroke-width: 0; stroke: rgb(0, 0, 0);"/></g><g class="node"><circle r="4.5211621611166946" x="64596.968526164885" y="17865.849558969778" transform="translate(216.04002851560162,59.7486607323404)" style="fill: rgb(244, 179, 0); stroke-width: 0; stroke: rgb(0, 0, 0);"/></g><g class="node"><circle r="7.83088257231202" x="62889.806110858815" y="14147.600864464035" transform="translate(210.3304552202636,47.31304636944493)" style="fill: rgb(244, 179, 0); stroke-width: 0; stroke: rgb(0, 0, 0);"/></g><g class="node"><circle r="4.5211621611166946" x="58865.77242421637" y="14887.147857693142" transform="translate(196.87214857597448,49.786447684592446)" style="fill: rgb(120, 186, 0); stroke-width: 0; stroke: rgb(0, 0, 0);"/></g><g class="node"><circle r="6.393888845939281" x="55388.85437612241" y="16035.87409980954" transform="translate(185.24366012081072,53.62834147093491)" style="fill: rgb(244, 179, 0); stroke-width: 0; stroke: rgb(0, 0, 0);"/></g><g class="node"><circle r="4.5211621611166946" x="51899.14876708774" y="14926.601430552577" transform="translate(173.57240390330347,49.91839943328621)" style="fill: rgb(120, 186, 0); stroke-width: 0; stroke: rgb(0, 0, 0);"/></g><g class="node"><circle r="7.148585050048957" x="48029.26638451214" y="14557.75621796777" transform="translate(160.62965345990685,48.68480340457448)" style="fill: rgb(244, 179, 0); stroke-width: 0; stroke: rgb(0, 0, 0);"/></g><g class="node"><circle r="4.5211621611166946" x="44457.63778038355" y="16092.521854795134" transform="translate(148.68440729225267,53.81779884546867)" style="fill: rgb(120, 186, 0); stroke-width: 0; stroke: rgb(0, 0, 0);"/></g><g class="node"><circle r="4.5211621611166946" x="41811.78080828342" y="17711.389790444395" transform="translate(139.83538731867364,59.23207287774045)" style="fill: rgb(120, 186, 0); stroke-width: 0; stroke: rgb(0, 0, 0);"/></g><g class="node"><circle r="7.148585050048957" x="38153.795544831795" y="16395.64655630392" transform="translate(127.60132289241403,54.83159383379237)" style="fill: rgb(120, 186, 0); stroke-width: 0; stroke: rgb(0, 0, 0);"/></g><g class="node"><circle r="7.148585050048957" x="33689.49553464482" y="17776.638508836757" transform="translate(112.67055362757466,59.45029601617645)" style="fill: rgb(255, 46, 18); stroke-width: 0; stroke: rgb(0, 0, 0);"/></g><g class="node"><circle r="4.5211621611166946" x="30376.65150466073" y="19810.62495884433" transform="translate(101.59080770789542,66.2529262837603)" style="fill: rgb(255, 46, 18); stroke-width: 0; stroke: rgb(0, 0, 0);"/></g><g class="node"><circle r="6.393888845939281" x="27121.457246303573" y="21487.598850366518" transform="translate(90.70387038897516,71.86153461661043)" style="fill: rgb(244, 179, 0); stroke-width: 0; stroke: rgb(0, 0, 0);"/></g><g class="node"><circle r="5.537270169557384" x="25499.586335757664" y="25106.352587322355" transform="translate(85.27955296240022,83.96438992415504)" style="fill: rgb(120, 186, 0); stroke-width: 0; stroke: rgb(0, 0, 0);"/></g><g class="node"><circle r="4.5211621611166946" x="23021.38634645136" y="27442.351108329123" transform="translate(76.99125868378381,91.77709400778971)" style="fill: rgb(244, 179, 0); stroke-width: 0; stroke: rgb(0, 0, 0);"/></g><g class="node"><circle r="6.393888845939281" x="19673.608759410963" y="28925.89966506679" transform="translate(65.79467812512027,96.73879486644411)" style="fill: rgb(120, 186, 0); stroke-width: 0; stroke: rgb(0, 0, 0);"/></g><g class="node"><circle r="9.590833268908922" x="16860.041132828712" y="33272.31841610385" transform="translate(56.38475295260439,111.27531242844097)" style="fill: rgb(244, 179, 0); stroke-width: 0; stroke: rgb(0, 0, 0);"/></g><g class="node"><circle r="5.537270169557384" x="16998.41576907453" y="38191.841517592795" transform="translate(56.847544378175684,127.72856694847088)" style="fill: rgb(244, 179, 0); stroke-width: 0; stroke: rgb(0, 0, 0);"/></g><g class="node"><circle r="5.537270169557384" x="14717.405156140656" y="41117.08258624377" transform="translate(49.21874634160754,137.51198189379187)" style="fill: rgb(120, 186, 0); stroke-width: 0; stroke: rgb(0, 0, 0);"/></g><g class="node"><circle r="4.5211621611166946" x="13063.776154597224" y="44094.3087117502" transform="translate(43.68821456387032,147.46925990551907)" style="fill: rgb(120, 186, 0); stroke-width: 0; stroke: rgb(0, 0, 0);"/></g><g class="node"><circle r="7.83088257231202" x="10374.690089373902" y="47177.909366869" transform="translate(34.69461568352476,157.7823055748127)" style="fill: rgb(244, 179, 0); stroke-width: 0; stroke: rgb(0, 0, 0);"/></g><g class="node"><circle r="6.393888845939281" x="8443.301026485078" y="51409.33969278849" transform="translate(28.235120489916653,171.93424646417554)" style="fill: rgb(120, 186, 0); stroke-width: 0; stroke: rgb(0, 0, 0);"/></g><g class="node"><circle r="4.5211621611166946" x="9460.099567708225" y="54927.10202402334" transform="translate(31.635784507385367,183.69933787298777)" style="fill: rgb(120, 186, 0); stroke-width: 0; stroke: rgb(0, 0, 0);"/></g><g class="node"><circle r="6.393888845939281" x="10838.010999092785" y="58319.72507702352" transform="translate(36.24418394345413,195.0459032676372)" style="fill: rgb(120, 186, 0); stroke-width: 0; stroke: rgb(0, 0, 0);"/></g><g class="node"><circle r="7.83088257231202" x="13542.897706746697" y="62103.7512680157" transform="translate(45.29062778176153,207.70150925757758)" style="fill: rgb(244, 179, 0); stroke-width: 0; stroke: rgb(0, 0, 0);"/></g><g class="node"><circle r="8.458319898472558" x="18744.731156350856" y="62940.093817344125" transform="translate(62.68806406806307,210.498641529579)" style="fill: rgb(244, 179, 0); stroke-width: 0; stroke: rgb(0, 0, 0);"/></g><g class="node"><circle r="5.537270169557384" x="22869.14455226345" y="64938.018609793704" transform="translate(76.48208880355669,217.18066424680168)" style="fill: rgb(120, 186, 0); stroke-width: 0; stroke: rgb(0, 0, 0);"/></g><g class="node"><circle r="6.393888845939281" x="26331.380878610315" y="66871.60684924157" transform="translate(88.06147451040239,223.64751454595842)" style="fill: rgb(120, 186, 0); stroke-width: 0; stroke: rgb(0, 0, 0);"/></g><g class="node"><circle r="5.537270169557384" x="30257.793975394135" y="67427.59610508323" transform="translate(101.1932908876058,225.50701038489376)" style="fill: rgb(120, 186, 0); stroke-width: 0; stroke: rgb(0, 0, 0);"/></g><g class="node"><circle r="14.650239810825296" x="32340.541908852316" y="73515.4113212205" transform="translate(108.15900303963986,245.8675963920418)" style="fill: rgb(255, 46, 18); stroke-width: 0; stroke: rgb(0, 0, 0);"/></g><g class="node"><circle r="4.5211621611166946" x="38174.652145701475" y="71632.55538095863" transform="translate(127.67107741037282,239.5704193343098)" style="fill: rgb(120, 186, 0); stroke-width: 0; stroke: rgb(0, 0, 0);"/></g><g class="node"><circle r="4.5211621611166946" x="40803.459690020456" y="73278.96462680722" transform="translate(136.46307588635605,245.07680477193054)" style="fill: rgb(120, 186, 0); stroke-width: 0; stroke: rgb(0, 0, 0);"/></g></svg>