<svg xmlns="http://www.w3.org/2000/svg" width="300" height="300" class="bubble"><defs><pattern id="hash-warning" patternUnits="userSpaceOnUse" width="4" height="4"><path d="M-1,1 l2,-2 M0,4 l4,-4 M3,5 l2,-2" stroke="#000000" stroke-width="1"/></pattern><pattern id="hash-critical" patternUnits="userSpaceOnUse" width="4" height="4"><path d="M-1,1 l2,-2 M0,4 l4,-4 M3,5 l2,-2" stroke="#000000" stroke-width="3"/></pattern><pattern id="hash-good" patternUnits="userSpaceOnUse" width="5" height="5"><circle cx="2" cy="2" r="2" style="stroke:none;fill:#eee"/></pattern></defs><g class="node"><circle r="2.817186049112681" x="58031.08531877926" y="33726.13685477623" transform="translate(194.08055290561626,112.79309984874993)" style="fill: rgb(120, 186, 0); stroke-width: 0; stroke: rgb(0, 0, 0);"/></g><g class="node"><circle r="7.45357368295275" x="61558.411721660625" y="33726.13685477623" transform="translate(205.8776311761225,112.79309984874993)" style="fill: rgb(255, 46, 18); stroke-width: 0; stroke: rgb(0, 0, 0);"/></g><g class="node"><circle r="8.68315056505953" x="57991.56850853663" y="29831.3674301976" transform="translate(193.9483896606576,99.76711515116254)" style="fill: rgb(255, 46, 18); stroke-width: 0; stroke: rgb(0, 0, 0);"/></g><g class="node"><circle r="7.968205436766858" x="54352.63947028547" y="33868.54166766593" transform="translate(181.77805842904837,113.26937012597301)" style="fill: rgb(255, 46, 18); stroke-width: 0; stroke: rgb(0, 0, 0);"/></g><g class="node"><circle r="32.0590326113142" x="58452.39579311944" y="45597.161867906405" transform="translate(195.48961803718876,152.49552464182744)" style="fill: rgb(255, 46, 18); stroke-width: 0; stroke: rgb(0, 0, 0);"/></g><g class="node"><circle r="5.270472495289479" x="65111.83600928843" y="36077.32712324024" transform="translate(217.7619933421018,120.65661245230851)" style="fill: rgb(255, 46, 18); stroke-width: 0; stroke: rgb(0, 0, 0);"/></g><g class="node"><circle r="5.270472495289479" x="65641.52470896627" y="32508.30756488415" transform="translate(219.5335274547367,108.720092190248)" style="fill: rgb(255, 46, 18); stroke-width: 0; stroke: rgb(0, 0, 0);"/></g><g class="node"><circle r="2.817186049112681" x="63395.124084703355" y="30714.738633366454" transform="translate(212.02048188863998,102.7215338908577)" style="fill: rgb(244, 179, 0); stroke-width: 0; stroke: rgb(0, 0, 0);"/></g><g class="node"><circle r="2.817186049112681" x="61841.602225785355" y="29241.426056015196" transform="translate(206.82475660797778,97.7940670769739)" style="fill: rgb(244, 179, 0); stroke-width: 0; stroke: rgb(0, 0, 0);"/></g><g class="node"><circle r="3.450334165406688" x="60999.55991169655" y="27068.517370095535" transform="translate(204.00856157758045,90.5268139468078)" style="fill: rgb(244, 179, 0); stroke-width: 0; stroke: rgb(0, 0, 0);"/></g><g class="node"><circle r="2.817186049112681" x="58905.88897936307" y="26045.233712861136" transform="translate(197.0063176567327,87.1044605781309)" style="fill: rgb(120, 186, 0); stroke-width: 0; stroke: rgb(0, 0, 0);"/></g><g class="node"><circle r="2.817186049112681" x="56766.6838021914" y="26134.01054925063" transform="translate(189.85178529161004,87.40137307441682)" style="fill: rgb(120, 186, 0); stroke-width: 0; stroke: rgb(0, 0, 0);"/></g><g class="node"><circle r="2.817186049112681" x="54997.5957686539" y="27339.998793932904" transform="translate(183.93510290519697,91.43477857502643)" style="fill: rgb(244, 179, 0); stroke-width: 0; stroke: rgb(0, 0, 0);"/></g><g class="node"><circle r="2.817186049112681" x="54133.181156919774" y="29298.79115039593" transform="translate(181.04408413685542,97.9859235799195)" style="fill: rgb(244, 179, 0); stroke-width: 0; stroke: rgb(0, 0, 0);"/></g><g class="node"><circle r="2.817186049112681" x="52502.40552733458" y="30686.10905292169" transform="translate(175.5899850412528,102.62578278569126)" style="fill: rgb(244, 179, 0); stroke-width: 0; stroke: rgb(0, 0, 0);"/></g><g class="node"><circle r="5.634372098225362" x="50069.65576928919" y="32413.04722290754" transform="translate(167.45369822504745,108.40149572878775)" style="fill: rgb(255, 46, 18); stroke-width: 0; stroke: rgb(0, 0, 0);"/></g><g class="node"><circle r="26.94797129713725" x="41833.493042036345" y="38427.597924496586" transform="translate(139.9080034850714,128.5170499147043)" style="fill: rgb(255, 46, 18); stroke-width: 0; stroke: rgb(0, 0, 0);"/></g><g class="node"><circle r="18.365806067278733" x="44390.940294856584" y="52197.30283673443" transform="translate(148.46133877878455,174.56957470479742)" style="fill: rgb(255, 46, 18); stroke-width: 0; stroke: rgb(0, 0, 0);"/></g><g class="node"><circle r="2.817186049112681" x="51041.13032165036" y="53568.51098419537" transform="translate(170.70277699548615,179.1555551310882)" style="fill: rgb(120, 186, 0); stroke-width: 0; stroke: rgb(0, 0, 0);"/></g><g class="node"><circle r="2.817186049112681" x="52744.94696282119" y="54865.07913511794" transform="translate(176.4011604107732,183.4919034619329)" style="fill: rgb(120, 186, 0); stroke-width: 0; stroke: rgb(0, 0, 0);"/></g><g class="node"><circle r="2.817186049112681" x="54669.609096915825" y="55803.03211171098" transform="translate(182.83815751476862,186.6288699388327)" style="fill: rgb(120, 186, 0); stroke-width: 0; stroke: rgb(0, 0, 0);"/></g><g class="node"><circle r="7.71518173893936" x="57591.1728602755" y="57915.95328199967" transform="translate(192.60927378018565,193.69549592642028)" style="fill: rgb(255, 46, 18); stroke-width: 0; stroke: rgb(0, 0, 0);"/></g><g class="node"><circle r="5.634372098225362" x="61898.37066297037" y="56806.1174667298" transform="translate(207.01461760190756,189.9836704572903)" style="fill: rgb(255, 46, 18); stroke-width: 0; stroke: rgb(0, 0, 0);"/></g><g class="node"><circle r="4.454362253823525" x="64860.87939649107" y="54993.77586827867" transform="translate(216.92267356685977,183.92232731865778)" style="fill: rgb(255, 46, 18); stroke-width: 0; stroke: rgb(0, 0, 0);"/></g><g class="node"><circle r="13.363086761470575" x="70322.58881204686" y="53090.64252533288" transform="translate(235.1892602409594,177.5573328606451)" style="fill: rgb(255, 46, 18); stroke-width: 0; stroke: rgb(0, 0, 0);"/></g><g class="node"><circle r="6.60688692155641" x="70422.42526743966" y="46664.02657605151" transform="translate(235.52316142956408,156.0636340336171)" style="fill: rgb(255, 46, 18); stroke-width: 0; stroke: rgb(0, 0, 0);"/></g><g class="node"><circle r="7.968205436766858" x="70298.78751694247" y="41851.29256508187" transform="translate(235.10965724729925,139.96753366248117)" style="fill: rgb(255, 46, 18); stroke-width: 0; stroke: rgb(0, 0, 0);"/></g><g class="node"><circle r="2.817186049112681" x="67467.65233831352" y="39498.43970283888" transform="translate(225.64097772011212,132.09846054461164)" style="fill: rgb(120, 186, 0); stroke-width: 0; stroke: rgb(0, 0, 0);"/></g><g class="node"><circle r="3.9841027183834288" x="68165.96952719732" y="37108.41314724203" transform="translate(227.9764867130345,124.10506069311714)" style="fill: rgb(255, 46, 18); stroke-width: 0; stroke: rgb(0, 0, 0);"/></g><g class="node"><circle r="7.71518173893936" x="69857.61962666106" y="33534.05493534754" transform="translate(233.63417935338146,112.15068540250013)" style="fill: rgb(255, 46, 18); stroke-width: 0; stroke: rgb(0, 0, 0);"/></g><g class="node"><circle r="2.817186049112681" x="67779.97017789041" y="30587.303594760146" transform="translate(226.68551898960004,102.2953297483617)" style="fill: rgb(120, 186, 0); stroke-width: 0; stroke: rgb(0, 0, 0);"/></g><g class="node"><circle r="5.976154077575144" x="65524.50045486446" y="28481.68075158093" transform="translate(219.14214198951322,95.25311288154158)" style="fill: rgb(244, 179, 0); stroke-width: 0; stroke: rgb(0, 0, 0);"/></g><g class="node"><circle r="9.343549089530502" x="63734.039970926926" y="23773.685187345553" transform="translate(213.15397983587602,79.50730831888144)" style="fill: rgb(255, 46, 18); stroke-width: 0; stroke: rgb(0, 0, 0);"/></g><g class="node"><circle r="4.8795093714373925" x="59049.74783392605" y="23291.307409207686" transform="translate(197.48745094958545,77.8940047130692)" style="fill: rgb(255, 46, 18); stroke-width: 0; stroke: rgb(0, 0, 0);"/></g><g class="node"><circle r="8.213438165602666" x="54687.80696467172" y="23007.55317676088" transform="translate(182.89901994873486,76.9449939022103)" style="fill: rgb(255, 46, 18); stroke-width: 0; stroke: rgb(0, 0, 0);"/></g><g class="node"><circle r="9.960256795958573" x="50348.78613039419" y="26991.09178484803" transform="translate(168.38724458325817,90.26786550116398)" style="fill: rgb(255, 46, 18); stroke-width: 0; stroke: rgb(0, 0, 0);"/></g><g class="node"><circle r="18.257452283471395" x="41824.6450967867" y="24454.809832278977" transform="translate(139.8784116949388,81.78531716481264)" style="fill: rgb(255, 46, 18); stroke-width: 0; stroke: rgb(0, 0, 0);"/></g><g class="node"><circle r="7.968205436766858" x="35362.89251708599" y="29660.567915667587" transform="translate(118.2671990537993,99.195879316614)" style="fill: rgb(255, 46, 18); stroke-width: 0; stroke: rgb(0, 0, 0);"/></g><g class="node"><circle r="4.454362253823525" x="33402.924229457196" y="33342.06278316899" transform="translate(111.71212116875317,111.50857118116721)" style="fill: rgb(255, 46, 18); stroke-width: 0; stroke: rgb(0, 0, 0);"/></g><g class="node"><circle r="17.593321237824583" x="28067.61801742201" y="37948.324246512006" transform="translate(93.86828768368565,126.91412791475588)" style="fill: rgb(255, 46, 18); stroke-width: 0; stroke: rgb(0, 0, 0);"/></g><g class="node"><circle r="2.817186049112681" x="33199.81168237407" y="42032.74884120647" transform="translate(111.03281499121763,140.57441084015542)" style="fill: rgb(120, 186, 0); stroke-width: 0; stroke: rgb(0, 0, 0);"/></g><g class="node"><circle r="6.299419511080015" x="33892.1455957952" y="45138.75736137725" transform="translate(113.34831302941538,150.9623992019306)" style="fill: rgb(255, 46, 18); stroke-width: 0; stroke: rgb(0, 0, 0);"/></g><g class="node"><circle r="11.785134773010215" x="35009.40053986474" y="50894.98391478025" transform="translate(117.08495163834363,170.21399302602092)" style="fill: rgb(255, 46, 18); stroke-width: 0; stroke: rgb(0, 0, 0);"/></g><g class="node"><circle r="6.900668330813377" x="37555.89934565515" y="56375.706673737564" transform="translate(125.60167005235837,188.54416947738315)" style="fill: rgb(255, 46, 18); stroke-width: 0; stroke: rgb(0, 0, 0);"/></g><g class="node"><circle r="6.60688692155641" x="40943.02938046786" y="59330.96101679469" transform="translate(136.92986414872192,198.42796326687187)" style="fill: rgb(255, 46, 18); stroke-width: 0; stroke: rgb(0, 0, 0);"/></g><g class="node"><circle r="10.727524873523675" x="46278.981807812335" y="61155.78279310011" transform="translate(154.77585888900447,204.5310461307696)" style="fill: rgb(255, 46, 18); stroke-width: 0; stroke: rgb(0, 0, 0);"/></g><g class="node"><circle r="3.9841027183834288" x="49314.630046164195" y="57366.682449343854" transform="translate(164.92852858248895,191.858469730247)" style="fill: rgb(244, 179, 0); stroke-width: 0; stroke: rgb(0, 0, 0);"/></g><g class="node"><circle r="32.55038741573697" x="56053.52818300588" y="70316.76080441689" transform="translate(187.46664944149126,235.16976857664508)" style="fill: rgb(255, 46, 18); stroke-width: 0; stroke: rgb(0, 0, 0);"/></g><g class="node"><circle r="4.454362253823525" x="61697.61288759317" y="60273.21082879671" transform="translate(206.34318691502733,201.57930043075822)" style="fill: rgb(120, 186, 0); stroke-width: 0; stroke: rgb(0, 0, 0);"/></g><g class="node"><circle r="2.817186049112681" x="63971.83920065495" y="58951.1850767263" transform="translate(213.94929498546804,197.1578096211582)" style="fill: rgb(120, 186, 0); stroke-width: 0; stroke: rgb(0, 0, 0);"/></g><g class="node"><circle r="2.817186049112681" x="65570.38450619798" y="57526.849083063375" transform="translate(219.29560035517719,192.39414409051295)" style="fill: rgb(244, 179, 0); stroke-width: 0; stroke: rgb(0, 0, 0);"/></g><g class="node"><circle r="2.817186049112681" x="67705.00913959552" y="57692.55300941946" transform="translate(226.43481317590476,192.94833782414534)" style="fill: rgb(244, 179, 0); stroke-width: 0; stroke: rgb(0, 0, 0);"/></g><g class="node"><circle r="19.51803748574957" x="72243.45857695676" y="63197.55158108839" transform="translate(241.61357383597579,211.35970428457657)" style="fill: rgb(255, 46, 18); stroke-width: 0; stroke: rgb(0, 0, 0);"/></g><g class="node"><circle r="3.9841027183834288" x="75003.99929410858" y="56241.811192239664" transform="translate(250.846151485313,188.09635850247378)" style="fill: rgb(244, 179, 0); stroke-width: 0; stroke: rgb(0, 0, 0);"/></g><g class="node"><circle r="3.9841027183834288" x="75945.90002497447" y="53563.758865586635" transform="translate(253.99632115376073,179.13966175781482)" style="fill: rgb(244, 179, 0); stroke-width: 0; stroke: rgb(0, 0, 0);"/></g><g class="node"><circle r="6.60688692155641" x="75925.22133369297" y="49940.7427325178" transform="translate(253.92716165114706,167.0225509448756)" style="fill: rgb(255, 46, 18); stroke-width: 0; stroke: rgb(0, 0, 0);"/></g><g class="node"><circle r="2.817186049112681" x="73522.99205254424" y="47716.003551041715" transform="translate(245.89295000850916,159.5819516757248)" style="fill: rgb(120, 186, 0); stroke-width: 0; stroke: rgb(0, 0, 0);"/></g><g class="node"><circle r="5.270472495289479" x="74012.86928965805" y="44883.473662522956" transform="translate(247.53133541691653,150.1086075669664)" style="fill: rgb(244, 179, 0); stroke-width: 0; stroke: rgb(0, 0, 0);"/></g><g class="node"><circle r="3.9841027183834288" x="74325.04524389305" y="41675.138251799246" transform="translate(248.57540215348843,139.37838880200417)" style="fill: rgb(120, 186, 0); stroke-width: 0; stroke: rgb(0, 0, 0);"/></g><g class="node"><circle r="6.60688692155641" x="73402.95210410522" y="38171.36631996544" transform="translate(245.49147860904756,127.66008802664028)" style="fill: rgb(120, 186, 0); stroke-width: 0; stroke: rgb(0, 0, 0);"/></g><g class="node"><circle r="6.299419511080015" x="74481.63457860985" y="33993.00159895972" transform="translate(249.099112303043,113.68562407678837)" style="fill: rgb(120, 186, 0); stroke-width: 0; stroke: rgb(0, 0, 0);"/></g><g class="node"><circle r="11.952308155150288" x="73282.3495806741" y="28202.250002793393" transform="translate(245.08812568787326,94.31856188225215)" style="fill: rgb(255, 46, 18); stroke-width: 0; stroke: rgb(0, 0, 0);"/></g><g class="node"><circle r="5.976154077575144" x="68699.42974153796" y="24619.77939209645" transform="translate(229.7606345870835,82.33705482306506)" style="fill: rgb(244, 179, 0); stroke-width: 0; stroke: rgb(0, 0, 0);"/></g><g class="node"><circle r="7.71518173893936" x="67933.63268282033" y="20134.60708710711" transform="translate(227.1994404107703,67.33647855219769)" style="fill: rgb(244, 179, 0); stroke-width: 0; stroke: rgb(0, 0, 0);"/></g><g class="node"><circle r="6.299419511080015" x="63532.460234728474" y="18644.02753604518" transform="translate(212.47980011614874,62.351262662358465)" style="fill: rgb(244, 179, 0); stroke-width: 0; stroke: rgb(0, 0, 0);"/></g><g class="node"><circle r="3.450334165406688" x="60815.64895029823" y="20640.588610869276" transform="translate(203.39347475016132,69.02872445106782)" style="fill: rgb(244, 179, 0); stroke-width: 0; stroke: rgb(0, 0, 0);"/></g><g class="node"><circle r="3.9841027183834288" x="58156.114618349784" y="20316.02313824984" transform="translate(194.49871109815982,67.94322119815999)" style="fill: rgb(120, 186, 0); stroke-width: 0; stroke: rgb(0, 0, 0);"/></g><g class="node"><circle r="11.785134773010215" x="54588.454575666125" y="16572.377527969544" transform="translate(182.56673771125793,55.42266731762389)" style="fill: rgb(255, 46, 18); stroke-width: 0; stroke: rgb(0, 0, 0);"/></g><g class="node"><circle r="5.976154077575144" x="50582.58031458831" y="20721.015645273415" transform="translate(169.1691649317335,69.29771118820541)" style="fill: rgb(244, 179, 0); stroke-width: 0; stroke: rgb(0, 0, 0);"/></g><g class="node"><circle r="4.8795093714373925" x="47144.42354800023" y="19347.8964627311" transform="translate(157.670312869566,64.7053393402378)" style="fill: rgb(244, 179, 0); stroke-width: 0; stroke: rgb(0, 0, 0);"/></g><g class="node"><circle r="5.976154077575144" x="44185.163004603935" y="17123.226761989237" transform="translate(147.77312041673557,57.26497244812454)" style="fill: rgb(244, 179, 0); stroke-width: 0; stroke: rgb(0, 0, 0);"/></g><g class="node"><circle r="10.910914651381283" x="38847.60600022298" y="15773.357383589191" transform="translate(129.92175919807016,52.75035914243877)" style="fill: rgb(255, 46, 18); stroke-width: 0; stroke: rgb(0, 0, 0);"/></g><g class="node"><circle r="3.9841027183834288" x="36307.61043913678" y="19975.29986499468" transform="translate(121.42679076634374,66.80367847824307)" style="fill: rgb(120, 186, 0); stroke-width: 0; stroke: rgb(0, 0, 0);"/></g><g class="node"><circle r="13.65681606487783" x="31863.085310649818" y="23593.39366732857" transform="translate(106.56215822959805,78.90432664658385)" style="fill: rgb(255, 46, 18); stroke-width: 0; stroke: rgb(0, 0, 0);"/></g><g class="node"><circle r="7.182443318923459" x="30397.51710712887" y="30118.130860201258" transform="translate(101.66059233153469,100.72619016789719)" style="fill: rgb(255, 46, 18); stroke-width: 0; stroke: rgb(0, 0, 0);"/></g><g class="node"><circle r="9.553542704469573" x="24939.201871686175" y="29966.20866504076" transform="translate(83.40535743038853,100.21808918073832)" style="fill: rgb(255, 46, 18); stroke-width: 0; stroke: rgb(0, 0, 0);"/></g><g class="node"><circle r="27.386178425207092" x="14516.656403196794" y="34829.48971452335" transform="translate(48.54734583008961,116.48324319238577)" style="fill: rgb(255, 46, 18); stroke-width: 0; stroke: rgb(0, 0, 0);"/></g><g class="node"><circle r="7.45357368295275" x="21832.84931700153" y="42873.453138553996" transform="translate(73.01621845151014,143.3861308981739)" style="fill: rgb(244, 179, 0); stroke-width: 0; stroke: rgb(0, 0, 0);"/></g><g class="node"><circle r="13.06275432515191" x="26571.79766047069" y="47453.88669073724" transform="translate(88.86554401495214,158.7053066579841)" style="fill: rgb(255, 46, 18); stroke-width: 0; stroke: rgb(0, 0, 0);"/></g><g class="node"><circle r="8.68315056505953" x="29165.327839457346" y="53910.88750189259" transform="translate(97.53955799149614,180.30062709663073)" style="fill: rgb(255, 46, 18); stroke-width: 0; stroke: rgb(0, 0, 0);"/></g><g class="node"><circle r="3.9841027183834288" x="33026.885245953126" y="55671.24958420643" transform="translate(110.45446570552886,186.18812569968705)" style="fill: rgb(120, 186, 0); stroke-width: 0; stroke: rgb(0, 0, 0);"/></g><g class="node"><circle r="3.9841027183834288" x="34322.726035586755" y="58197.10347923264" transform="translate(114.78838138992226,194.63579758940682)" style="fill: rgb(120, 186, 0); stroke-width: 0; stroke: rgb(0, 0, 0);"/></g><g class="node"><circle r="3.450334165406688" x="36495.343852374775" y="59764.967450055505" transform="translate(122.05466171362802,199.87948979951673)" style="fill: rgb(120, 186, 0); stroke-width: 0; stroke: rgb(0, 0, 0);"/></g><g class="node"><circle r="7.968205436766858" x="38159.86692859887" y="63259.281487453685" transform="translate(127.62162852374203,211.56615882091535)" style="fill: rgb(244, 179, 0); stroke-width: 0; stroke: rgb(0, 0, 0);"/></g><g class="node"><circle r="16.90311629467608" x="40815.18363480349" y="70692.11915833743" transform="translate(136.50228640402506,236.42514768674727)" style="fill: rgb(255, 46, 18); stroke-width: 0; stroke: rgb(0, 0, 0);"/></g><g class="node"><circle r="2.817186049112681" x="45865.262040917725" y="74546.20907345839" transform="translate(153.39218073885527,249.31508051323874)" style="fill: rgb(120, 186, 0); stroke-width: 0; stroke: rgb(0, 0, 0);"/></g><g class="node"><circle r="6.60688692155641" x="46439.603223018785" y="77769.60823449104" transform="translate(155.3130542575879,260.09567971401685)" style="fill: rgb(244, 179, 0); stroke-width: 0; stroke: rgb(0, 0, 0);"/></g><g class="node"><circle r="5.634372098225362" x="49666.1582644696" y="80325.96534169216" transform="translate(166.10420824237326,268.64536903575976)" style="fill: rgb(120, 186, 0); stroke-width: 0; stroke: rgb(0, 0, 0);"/></g><g class="node"><circle r="4.8795093714373925" x="53044.64576048864" y="81569.33367693338" transform="translate(177.40349752671787,272.8037915616501)" style="fill: rgb(120, 186, 0); stroke-width: 0; stroke: rgb(0, 0, 0);"/></g><g class="node"><circle r="2.817186049112681" x="55793.184060317435" y="81344.9619533033" transform="translate(186.59593331209845,272.05338445920836)" style="fill: rgb(120, 186, 0); stroke-width: 0; stroke: rgb(0, 0, 0);"/></g><g class="node"><circle r="3.450334165406688" x="58123.54183791815" y="81344.75115241119" transform="translate(194.38977203317108,272.0526794395023)" style="fill: rgb(120, 186, 0); stroke-width: 0; stroke: rgb(0, 0, 0);"/></g><g class="node"><circle r="3.450334165406688" x="60532.11180267728" y="80604.80320365835" transform="translate(202.4451899755093,269.5779371359811)" style="fill: rgb(120, 186, 0); stroke-width: 0; stroke: rgb(0, 0, 0);"/></g><g class="node"><circle r="2.817186049112681" x="62460.64173093247" y="79296.62136160226" transform="translate(208.89512284592797,265.2027470287701)" style="fill: rgb(120, 186, 0); stroke-width: 0; stroke: rgb(0, 0, 0);"/></g><g class="node"><circle r="2.817186049112681" x="64074.62615475477" y="77889.80424613331" transform="translate(214.29306406272497,260.497673063991)" style="fill: rgb(120, 186, 0); stroke-width: 0; stroke: rgb(0, 0, 0);"/></g><g class="node"><circle r="2.817186049112681" x="65386.45215970147" y="76197.70713028476" transform="translate(218.6804420056905,254.83848538556776)" style="fill: rgb(120, 186, 0); stroke-width: 0; stroke: rgb(0, 0, 0);"/></g><g class="node"><circle r="2.817186049112681" x="66346.70266186577" y="74284.07208414597" transform="translate(221.89198214670827,248.43836817440126)" style="fill: rgb(120, 186, 0); stroke-width: 0; stroke: rgb(0, 0, 0);"/></g><g class="node"><circle r="7.968205436766858" x="68581.6796267541" y="71358.9873063226" transform="translate(229.3668214941609,238.65547594087826)" style="fill: rgb(120, 186, 0); stroke-width: 0; stroke: rgb(0, 0, 0);"/></g><g class="node"><circle r="2.817186049112681" x="66860.76032685336" y="68104.80849220304" transform="translate(223.61123855134903,227.7719347565319)" style="fill: rgb(120, 186, 0); stroke-width: 0; stroke: rgb(0, 0, 0);"/></g><g class="node"><circle r="3.9841027183834288" x="72553.26089584647" y="70674.64539695864" transform="translate(242.64970199279753,236.3667070132396)" style="fill: rgb(120, 186, 0); stroke-width: 0; stroke: rgb(0, 0, 0);"/></g><g class="node"><circle r="5.976154077575144" x="75973.66886600164" y="70363.99515388928" transform="translate(254.08919353177805,235.32774298959626)" style="fill: rgb(255, 46, 18); stroke-width: 0; stroke: rgb(0, 0, 0);"/></g><g class="node"><circle r="4.454362253823525" x="78380.86500329446" y="67720.7582761474" transform="translate(262.14001673342625,226.48748587340265)" style="fill: rgb(120, 186, 0); stroke-width: 0; stroke: rgb(0, 0, 0);"/></g><g class="node"><circle r="7.182443318923459" x="80587.99982152336" y="64462.096935479116" transform="translate(269.521738533523,215.5889529614686)" style="fill: rgb(120, 186, 0); stroke-width: 0; stroke: rgb(0, 0, 0);"/></g><g class="node"><circle r="2.817186049112681" x="79131.64629885659" y="61338.68028983937" transform="translate(264.6509909660756,205.14274344427884)" style="fill: rgb(120, 186, 0); stroke-width: 0; stroke: rgb(0, 0, 0);"/></g><g class="node"><circle r="5.634372098225362" x="78616.53040346577" y="58400.10198689428" transform="translate(262.92819532931696,195.31472236419492)" style="fill: rgb(120, 186, 0); stroke-width: 0; stroke: rgb(0, 0, 0);"/></g><g class="node"><circle r="5.270472495289479" x="78962.73920719296" y="54699.34298080553" transform="translate(264.08608430499316,182.93760194249342)" style="fill: rgb(120, 186, 0); stroke-width: 0; stroke: rgb(0, 0, 0);"/></g><g class="node"><circle r="8.45155814733804" x="80846.79505988605" y="50547.57799326856" transform="translate(270.3872744477794,169.052100311935)" style="fill: rgb(255, 46, 18); stroke-width: 0; stroke: rgb(0, 0, 0);"/></g><g class="node"><circle r="2.817186049112681" x="78303.09998664353" y="47689.995510672285" transform="translate(261.8799330656974,159.494968263118)" style="fill: rgb(120, 186, 0); stroke-width: 0; stroke: rgb(0, 0, 0);"/></g><g class="node"><circle r="12.440356750859067" x="79565.925734991" y="42833.10821993852" transform="translate(266.10343055180937,143.25119805999506)" style="fill: rgb(255, 46, 18); stroke-width: 0; stroke: rgb(0, 0, 0);"/></g><g class="node"><circle r="4.454362253823525" x="77155.39526627326" y="37880.7151020234" transform="translate(258.0414557400444,126.68801037466021)" style="fill: rgb(120, 186, 0); stroke-width: 0; stroke: rgb(0, 0, 0);"/></g><g class="node"><circle r="3.9841027183834288" x="77869.65680841857" y="34988.125684677565" transform="translate(260.4302903291591,117.0137982765136)" style="fill: rgb(120, 186, 0); stroke-width: 0; stroke: rgb(0, 0, 0);"/></g><g class="node"><circle r="3.9841027183834288" x="77507.30468626371" y="32172.48327295919" transform="translate(259.2184103219522,107.59693402327488)" style="fill: rgb(120, 186, 0); stroke-width: 0; stroke: rgb(0, 0, 0);"/></g><g class="node"><circle r="3.450334165406688" x="78155.05713315308" y="29572.698209462975" transform="translate(261.38480646539495,98.90200070054507)" style="fill: rgb(120, 186, 0); stroke-width: 0; stroke: rgb(0, 0, 0);"/></g><g class="node"><circle r="4.454362253823525" x="78448.984149265" y="26768.185184136317" transform="translate(262.36783996409696,89.5223584753723)" style="fill: rgb(120, 186, 0); stroke-width: 0; stroke: rgb(0, 0, 0);"/></g><g class="node"><circle r="2.817186049112681" x="76739.52468407403" y="24768.78383647525" transform="translate(256.6505842276723,82.83539744640551)" style="fill: rgb(120, 186, 0); stroke-width: 0; stroke: rgb(0, 0, 0);"/></g><g class="node"><circle r="2.817186049112681" x="74933.888123641" y="23618.237562592716" transform="translate(250.61166596535446,78.98741659730005)" style="fill: rgb(120, 186, 0); stroke-width: 0; stroke: rgb(0, 0, 0);"/></g><g class="node"><circle r="15.039657948453508" x="74816.15022976631" y="17823.868020342987" transform="translate(250.21789374503783,59.60825424863876)" style="fill: rgb(255, 46, 18); stroke-width: 0; stroke: rgb(0, 0, 0);"/></g><g class="node"><circle r="4.8795093714373925" x="68675.3523062501" y="15978.085480016467" transform="translate(229.68010804765922,53.43506849503835)" style="fill: rgb(244, 179, 0); stroke-width: 0; stroke: rgb(0, 0, 0);"/></g><g class="node"><circle r="3.9841027183834288" x="65576.12275592171" y="15764.373029837205" transform="translate(219.3147918258251,52.720311136579284)" style="fill: rgb(244, 179, 0); stroke-width: 0; stroke: rgb(0, 0, 0);"/></g><g class="node"><circle r="10.351002496220067" x="61315.14541035164" y="13682.066256125561" transform="translate(205.06403147274796,45.75607443520255)" style="fill: rgb(255, 46, 18); stroke-width: 0; stroke: rgb(0, 0, 0);"/></g><g class="node"><circle r="10.157508752597582" x="56058.13575218611" y="9710.788138033518" transform="translate(187.4820593718599,32.4742078195101)" style="fill: rgb(255, 46, 18); stroke-width: 0; stroke: rgb(0, 0, 0);"/></g><g class="node"><circle r="6.60688692155641" x="51009.13714690135" y="11812.391781641993" transform="translate(170.5957764110413,39.502982547297634)" style="fill: rgb(255, 46, 18); stroke-width: 0; stroke: rgb(0, 0, 0);"/></g></svg>